<?xml version="1.0" encoding="iso-8859-1"?>
<!-- Generator: Adobe Illustrator 19.0.0, SVG Export Plug-In . SVG Version: 6.00 Build 0)  -->
<svg version="1.1" id="Layer_1" xmlns="http://www.w3.org/2000/svg" xmlns:xlink="http://www.w3.org/1999/xlink" x="0px" y="0px"
	 viewBox="0 0 512 512" style="enable-background:new 0 0 512 512;" xml:space="preserve">
<g>
	<path style="fill:#D1D4D1;" d="M314.88,203.093c-2.56,0-4.267-0.853-5.973-2.56c-3.413-3.413-3.413-8.533,0-11.947l85.333-85.333
		c3.413-3.413,8.533-3.413,11.947,0s3.413,8.533,0,11.947l-85.333,85.333C319.147,202.24,317.44,203.093,314.88,203.093"/>
	<path style="fill:#D1D4D1;" d="M139.093,381.44c-2.56,0-4.267-0.853-5.973-2.56c-3.413-3.413-3.413-8.533,0-11.947l56.32-56.32
		c3.413-3.413,8.533-3.413,11.947,0c3.413,3.413,3.413,8.533,0,11.947l-56.32,56.32C144.213,380.587,141.653,381.44,139.093,381.44"
		/>
	<path style="fill:#D1D4D1;" d="M386.56,395.093c-2.56,0-4.267-0.853-5.973-2.56l-70.827-70.827c-3.413-3.413-3.413-8.533,0-11.947
		s8.533-3.413,11.947,0l70.827,70.827c3.413,3.413,3.413,8.533,0,11.947C391.68,394.24,389.12,395.093,386.56,395.093"/>
	<path style="fill:#D1D4D1;" d="M195.413,203.947c-2.56,0-4.267-0.853-5.973-2.56l-98.987-99.84c-3.413-3.413-3.413-8.533,0-11.947
		s8.533-3.413,11.947,0l98.987,100.693c3.413,3.413,3.413,8.533,0,11.947C199.68,203.947,197.973,203.947,195.413,203.947"/>
</g>
<path style="fill:#D25627;" d="M256,162.133c-52.053,0-93.867,41.813-93.867,93.867s41.813,93.867,93.867,93.867
	s93.867-41.813,93.867-93.867S308.053,162.133,256,162.133"/>
<path style="fill:#3B97D3;" d="M443.733,0c-37.547,0-68.267,30.72-68.267,68.267s30.72,68.267,68.267,68.267S512,105.813,512,68.267
	S481.28,0,443.733,0"/>
<path style="fill:#F29C1F;" d="M59.733,0C26.453,0,0,26.453,0,59.733s26.453,59.733,59.733,59.733s59.733-26.453,59.733-59.733
	S93.013,0,59.733,0"/>
<path style="fill:#CC66A1;" d="M435.2,358.4c-42.667,0-76.8,34.133-76.8,76.8s34.133,76.8,76.8,76.8s76.8-34.133,76.8-76.8
	S477.867,358.4,435.2,358.4"/>
<path style="fill:#71C285;" d="M85.333,341.333C38.4,341.333,0,379.733,0,426.667S38.4,512,85.333,512s85.333-38.4,85.333-85.333
	S132.267,341.333,85.333,341.333"/>
<path style="fill:#A54123;" d="M204.8,264.533c-5.12,0-8.533-3.413-8.533-8.533c0-33.28,26.453-59.733,59.733-59.733
	c5.12,0,8.533,3.413,8.533,8.533c0,5.12-3.413,8.533-8.533,8.533c-23.893,0-42.667,18.773-42.667,42.667
	C213.333,261.12,209.92,264.533,204.8,264.533"/>
<path style="fill:#2D769E;" d="M418.133,76.8c-5.12,0-8.533-3.413-8.533-8.533c0-18.773,15.36-34.133,34.133-34.133
	c5.12,0,8.533,3.413,8.533,8.533s-3.413,8.533-8.533,8.533c-9.387,0-17.067,7.68-17.067,17.067
	C426.667,73.387,423.253,76.8,418.133,76.8"/>
<path style="fill:#DB8B28;" d="M42.667,68.267c-5.12,0-8.533-3.413-8.533-8.533c0-14.507,11.093-25.6,25.6-25.6
	c5.12,0,8.533,3.413,8.533,8.533S64.853,51.2,59.733,51.2S51.2,54.613,51.2,59.733S47.787,68.267,42.667,68.267"/>
<path style="fill:#AD508A;" d="M401.067,443.733c-5.12,0-8.533-3.413-8.533-8.533c0-23.893,18.773-42.667,42.667-42.667
	c5.12,0,8.533,3.413,8.533,8.533s-3.413,8.533-8.533,8.533c-14.507,0-25.6,11.093-25.6,25.6
	C409.6,440.32,406.187,443.733,401.067,443.733"/>
<path style="fill:#599967;" d="M42.667,435.2c-5.12,0-8.533-3.413-8.533-8.533c0-28.16,23.04-51.2,51.2-51.2
	c5.12,0,8.533,3.413,8.533,8.533c0,5.12-3.413,8.533-8.533,8.533c-18.773,0-34.133,15.36-34.133,34.133
	C51.2,431.787,47.787,435.2,42.667,435.2"/>
<g>
</g>
<g>
</g>
<g>
</g>
<g>
</g>
<g>
</g>
<g>
</g>
<g>
</g>
<g>
</g>
<g>
</g>
<g>
</g>
<g>
</g>
<g>
</g>
<g>
</g>
<g>
</g>
<g>
</g>
</svg>
