<svg width="500" height="504.12" xmlns="http://www.w3.org/2000/svg">

 <g>
  <title>background</title>
  <rect fill="none" id="canvas_background" height="506.12" width="502" y="-1" x="-1"/>
 </g>
 <g>
  <title>Layer 1</title>
  <circle id="svg_1" fill="#3DB39E" r="246.059998" cy="253.060007" cx="251.560004"/>
  <path id="svg_2" fill="#37A18E" d="m459.162994,116.609001l-222.916992,230.794014l0.393997,24.812012l10.240005,0l241.427979,-194.560013c-7.089996,-21.661011 -16.935974,-42.535019 -29.144989,-61.046013z"/>
  <path id="svg_3" fill="#F2F1EF" d="m499.397003,103.582001l-44.505005,-44.111c-5.90799,-5.908001 -15.753998,-5.908001 -22.054993,0l-190.228012,196.528999l-82.313995,-81.132004c-5.908005,-5.908005 -15.754013,-5.908005 -22.055008,0l-39.384995,38.990997c-5.908005,5.908005 -5.908005,15.753998 0,21.662003l131.544998,130.362c3.544998,3.545013 8.270996,4.726013 12.996994,4.332001c4.725998,0.394012 9.452011,-0.787994 12.996994,-4.332001l243.003021,-240.246002c5.90799,-6.301994 5.90799,-16.147995 0,-22.054993z"/>
  <path id="svg_4" fill="#E6E5E3" d="m256.214722,367.866852l241.193237,-241.125999c5.864044,-5.929642 5.864044,-15.811707 0,-21.741348l-7.036194,-6.719528l-247.448318,245.869347l-136.819412,-134.792953l-5.863998,5.929642c-5.864006,5.929642 -5.864006,15.811707 0,21.741364l130.565323,130.840485c3.5186,3.558014 8.209412,4.743347 12.900208,4.34787c4.299744,0.39447 8.99054,-0.790863 12.509155,-4.348877z"/>
  <g id="svg_5"/>
  <g id="svg_6"/>
  <g id="svg_7"/>
  <g id="svg_8"/>
  <g id="svg_9"/>
  <g id="svg_10"/>
  <g id="svg_11"/>
  <g id="svg_12"/>
  <g id="svg_13"/>
  <g id="svg_14"/>
  <g id="svg_15"/>
  <g id="svg_16"/>
  <g id="svg_17"/>
  <g id="svg_18"/>
  <g id="svg_19"/>
 </g>
</svg>