<svg width="512" height="512" xmlns="http://www.w3.org/2000/svg">

 <g>
  <title>background</title>
  <rect fill="none" id="canvas_background" height="402" width="582" y="-1" x="-1"/>
 </g>
 <g>
  <title>Layer 1</title>
  <g id="svg_27">
   <path id="svg_1" fill="#FDB62F" d="m151.570465,392.241516c69.511414,61.547272 156.042603,84.609497 221.419739,63.273621c22.192993,-7.587891 34.026642,-31.708435 26.427185,-53.867645c-0.682709,-1.996796 -1.515381,-3.936432 -2.490723,-5.811646l-29.17337,-57.057159c-5.372314,-10.493286 -3.358826,-23.246521 4.98056,-31.586884l0,0c8.566742,-8.55368 21.759369,-10.422516 32.375854,-4.596375l14.686279,8.07077c13.754425,7.602386 31.073242,2.635803 38.687225,-11.097717c3.244324,-5.854279 4.318787,-12.667908 3.031525,-19.232056c-10.367432,-48.29747 -33.293121,-93.014267 -66.466125,-129.653061l-29.173431,-29.128975c-90.552551,-79.65097 -209.615921,-94.172401 -273.285072,-30.600197c-62.011108,61.916702 -49.808304,176.308685 24.534569,265.764008l34.445786,35.523315z"/>
   <circle id="svg_2" fill="#DE4C3C" r="28.349228" cy="122.26425" cx="273.359103"/>
   <circle id="svg_3" fill="#4398D1" r="28.349218" cy="108.05509" cx="180.872022"/>
   <circle id="svg_4" fill="#F46B27" r="28.349228" cy="171.996713" cx="116.832893"/>
   <circle id="svg_5" fill="#6CBBC7" r="28.349228" cy="257.252479" cx="131.063721"/>
   <circle id="svg_6" fill="#6B962A" r="28.349214" cy="385.136531" cx="252.012459"/>
   <circle id="svg_7" fill="#DB6EA2" r="24.806171" cy="246.59581" cx="383.663133"/>
   <path id="svg_8" fill="#E0E0E0" d="m109.717079,370.927338l28.461647,28.418365c0,0 60.822983,-47.210175 116.850769,-96.466949l-44.827698,-44.759491c-46.31488,49.434692 -100.484718,112.808075 -100.484718,112.808075z"/>
   <path id="svg_9" fill="#4398D1" d="m454.604462,61.661839c-5.891418,-5.882454 -15.333527,-6.209213 -21.623932,-0.753315l-174.649445,149.375275c-12.096405,10.316223 -29.457932,27.957153 -48.107529,47.857224l44.827698,44.75943c26.120895,-22.279907 50.776382,-46.215363 73.822983,-71.657455l126.064758,-147.520943c5.884155,-6.23819 5.735016,-16.007133 -0.334534,-22.060215z"/>
   <path id="svg_10" fill="#C7C7C7" d="m194.541031,275.064026c-3.20163,3.488129 -6.404068,6.990692 -9.59845,10.507782l41.78244,41.718842c3.600632,-3.055115 7.214966,-6.131134 10.851059,-9.236176l-43.035049,-42.990448z"/>
   <path id="svg_11" fill="#4398D1" d="m138.178726,395.55899l-24.398346,-24.631653l-5.770523,2.329987c-33.478516,13.662689 -55.316044,46.22345 -55.2169,82.335846l0,7.694122l0,0c39.804409,-0.142456 74.549229,-26.947876 84.738522,-65.362915l0.647247,-2.365387z"/>
   <g id="svg_12"/>
   <g id="svg_13"/>
   <g id="svg_14"/>
   <g id="svg_15"/>
   <g id="svg_16"/>
   <g id="svg_17"/>
   <g id="svg_18"/>
   <g id="svg_19"/>
   <g id="svg_20"/>
   <g id="svg_21"/>
   <g id="svg_22"/>
   <g id="svg_23"/>
   <g id="svg_24"/>
   <g id="svg_25"/>
   <g id="svg_26"/>
  </g>
 </g>
</svg>