<svg width="512" height="512" xmlns="http://www.w3.org/2000/svg">
 <defs>
  <linearGradient y2="1.29744" x2="0.500015" y1="0.005517" x1="0.500015" id="SVGID_2_">
   <stop stop-color="#FFCF95" offset="0"/>
   <stop stop-color="#FFC954" offset="0.427"/>
   <stop stop-color="#FFC200" offset="1"/>
  </linearGradient>
  <linearGradient y2="1.05367" x2="0.500015" y1="0.124161" x1="0.500015" id="SVGID_3_">
   <stop stop-color="#FFC200" stop-opacity="0" offset="0"/>
   <stop stop-color="#FFBB00" stop-opacity="0.203" offset="0.203"/>
   <stop stop-color="#FFA700" stop-opacity="0.499" offset="0.499"/>
   <stop stop-color="#FF8800" stop-opacity="0.852" offset="0.852"/>
   <stop stop-color="#FF7800" offset="1"/>
  </linearGradient>
  <linearGradient y2="-0.845175" x2="0.254359" y1="2.630813" x1="0.803304" id="SVGID_4_">
   <stop stop-color="#FFC200" stop-opacity="0" offset="0"/>
   <stop stop-color="#FFBB00" stop-opacity="0.203" offset="0.203"/>
   <stop stop-color="#FFA700" stop-opacity="0.499" offset="0.499"/>
   <stop stop-color="#FF8800" stop-opacity="0.852" offset="0.852"/>
   <stop stop-color="#FF7800" offset="1"/>
  </linearGradient>
  <linearGradient y2="0.807113" x2="0.49997" y1="1.581978" x1="0.49997" id="SVGID_5_">
   <stop stop-color="#FF9102" offset="0"/>
   <stop stop-color="#FF9409" offset="0.128"/>
   <stop stop-color="#FF9C1D" offset="0.314"/>
   <stop stop-color="#FFAA3D" offset="0.537"/>
   <stop stop-color="#FFBC69" offset="0.785"/>
   <stop stop-color="#FFCF95" offset="1"/>
  </linearGradient>
 </defs>
 <g>
  <title>background</title>
  <rect fill="none" id="canvas_background" height="6187.34" width="6187.34" y="-1" x="-1"/>
 </g>
 <g>
  <title>Layer 1</title>
  <g id="svg_6"/>
  <g id="svg_7"/>
  <g id="svg_8"/>
  <g id="svg_9"/>
  <g id="svg_10"/>
  <g id="svg_11"/>
  <g id="svg_12"/>
  <g id="svg_13"/>
  <g id="svg_14"/>
  <g id="svg_15"/>
  <g id="svg_16"/>
  <g id="svg_17"/>
  <g id="svg_18"/>
  <g id="svg_19"/>
  <g id="svg_20"/>
  <path id="svg_1" fill="#00bf00" d="m159.76149,218.156342l91.446045,125.228302c6.350021,8.695343 18.965866,8.695343 25.315018,0l91.446014,-125.228302c7.904877,-10.824905 0.448151,-26.345749 -12.657928,-26.345749l-35.321899,0l0,-128.122513c0,-4.323608 -3.384186,-7.828079 -7.559357,-7.828079l-97.128693,0c-4.175186,0 -7.559341,3.504471 -7.559341,7.828079l0,128.123428l-35.321915,0c-13.106079,-0.000916 -20.56279,15.519928 -12.657944,26.344833z"/>
  <path id="svg_2" fill="url(#SVGID_2_)" d="m484,335.796326l0,98.606506c0,14.765289 -11.559113,26.735352 -25.817505,26.735352l-397.364994,0c-14.258381,0 -25.817501,-11.970062 -25.817501,-26.735352l0,-98.606506c0,-14.765259 11.55912,-26.735321 25.817501,-26.735321l87.49799,0c10.878601,0 20.589996,7.061615 24.284592,17.658569l6.3237,18.142609c3.692856,10.596069 13.405121,17.6586 24.284592,17.6586l112.585876,0c10.878601,0 20.589996,-7.061615 24.284607,-17.6586l6.3237,-18.142609c3.692841,-10.596039 13.40509,-17.658569 24.284576,-17.658569l87.497131,0c14.256622,0 25.815735,11.970062 25.815735,26.735321z"/>
  <path id="svg_3" fill="url(#SVGID_3_)" d="m35,394.63858l0,39.765167c0,14.765289 11.55912,26.735352 25.817501,26.735352l397.364994,0c14.258392,0 25.817505,-11.970062 25.817505,-26.735352l0,-39.765167l-449,0z"/>
  <path id="svg_4" fill="url(#SVGID_4_)" d="m370.322327,392.542603c-1.075165,-1.520203 -2.807129,-2.522766 -4.793427,-2.522766l-212.05867,0c-3.576218,0 -6.341248,3.248383 -5.893127,6.921753l3.300858,27.065887c0.211349,1.730011 1.117218,3.19754 2.389694,4.167419c0.229767,0.329651 18.537918,19.263245 31.798309,32.965088l251.497025,0l-66.240662,-68.597382z"/>
  <path id="svg_5" fill="url(#SVGID_5_)" d="m362.228027,429.388153l-205.45607,0c-2.992172,0 -5.517776,-2.305756 -5.893127,-5.379791l-3.300842,-27.065857c-0.448135,-3.674286 2.31691,-6.921783 5.893127,-6.921783l212.05867,0c3.576202,0 6.341248,3.248383 5.893127,6.921783l-3.300873,27.065857c-0.375336,3.074036 -2.900085,5.379791 -5.894012,5.379791z"/>
 </g>
</svg>