<?xml version="1.0" encoding="iso-8859-1"?>
<!-- Generator: Adobe Illustrator 19.0.0, SVG Export Plug-In . SVG Version: 6.00 Build 0)  -->
<svg version="1.1" id="Layer_1" xmlns="http://www.w3.org/2000/svg" xmlns:xlink="http://www.w3.org/1999/xlink" x="0px" y="0px"
	 viewBox="0 0 395.636 395.636" style="enable-background:new 0 0 395.636 395.636;" xml:space="preserve">
<polygon style="fill:#FFFFFF;" points="373.398,53.786 373.398,389.43 69.883,389.43 69.883,341.85 22.238,341.85 22.238,6.206 
	325.754,6.206 325.754,53.786 "/>
<path style="fill:#193651;" d="M331.96,47.58V0H16.097v348.057h47.58v47.58h315.863V47.58H331.96z M28.444,12.347h291.168v323.297
	H28.444V12.347z M367.192,383.289H76.024v-35.232H331.96V59.992h35.232V383.289z"/>
<rect x="46.998" y="30.901" style="fill:#D3D7DA;" width="254.061" height="286.19"/>
<g>
	<rect x="85.915" y="176.808" style="fill:#193651;" width="176.162" height="12.347"/>
	<rect x="85.915" y="145.907" style="fill:#193651;" width="176.162" height="12.347"/>
	<rect x="85.915" y="207.709" style="fill:#193651;" width="176.162" height="12.347"/>
	<rect x="85.915" y="238.028" style="fill:#193651;" width="105.697" height="12.347"/>
	<rect x="85.915" y="99.556" style="fill:#193651;" width="12.347" height="12.347"/>
	<rect x="114.36" y="99.556" style="fill:#193651;" width="12.347" height="12.347"/>
	<rect x="142.804" y="99.556" style="fill:#193651;" width="12.347" height="12.347"/>
</g>
<g>
</g>
<g>
</g>
<g>
</g>
<g>
</g>
<g>
</g>
<g>
</g>
<g>
</g>
<g>
</g>
<g>
</g>
<g>
</g>
<g>
</g>
<g>
</g>
<g>
</g>
<g>
</g>
<g>
</g>
</svg>
