<?xml version="1.0" encoding="iso-8859-1"?>
<!-- Generator: Adobe Illustrator 19.0.0, SVG Export Plug-In . SVG Version: 6.00 Build 0)  -->
<svg version="1.1" id="Layer_1" xmlns="http://www.w3.org/2000/svg" xmlns:xlink="http://www.w3.org/1999/xlink" x="0px" y="0px"
	 viewBox="0 0 509.287 509.287" style="enable-background:new 0 0 509.287 509.287;" xml:space="preserve">
<circle style="fill:#FBD303;" cx="254.644" cy="254.644" r="254.644"/>
<path style="fill:#F1F3F7;" d="M254.983,483.857c-55.269,0-98.331-100.705-98.331-229.213S199.714,25.43,254.983,25.43
	s98.331,100.705,98.331,229.213C352.975,383.152,309.913,483.857,254.983,483.857z M254.983,41.367
	c-44.758,0-82.395,97.653-82.395,213.277s37.637,213.277,82.395,213.277s82.395-97.653,82.395-213.277
	S299.401,41.367,254.983,41.367z"/>
<g>
	<path style="fill:#FFFFFF;" d="M384.848,398.072c-47.809,0-112.911-20.005-179.03-58.321
		C94.601,275.666,28.821,187.846,56.286,140.037s136.307-34.924,247.523,29.499l0,0c111.216,64.085,176.657,151.905,149.192,199.714
		C442.151,388.577,417.399,398.072,384.848,398.072z M123.762,126.813c-26.109,0-45.436,6.781-53.913,21.023
		C47.47,186.49,113.25,268.207,213.277,325.849s203.783,73.918,226.162,35.264s-43.401-120.371-143.428-178.013l0,0
		C232.943,146.819,168.519,126.813,123.762,126.813z"/>
	<path style="fill:#FFFFFF;" d="M124.779,398.072c-32.551,0-57.303-9.494-68.493-28.821
		c-27.465-47.809,37.976-135.29,149.192-199.714c111.216-64.085,220.058-77.309,247.523-29.499
		c27.465,47.809-37.976,135.29-149.192,199.714C238.029,377.727,172.588,398.072,124.779,398.072z M385.865,126.813
		c-44.758,0-109.181,20.005-172.249,56.286l0,0C113.589,240.742,47.809,322.458,70.188,361.113s125.796,22.718,226.162-35.264
		c100.027-57.642,165.468-139.02,143.089-178.013C431.301,133.595,411.974,126.813,385.865,126.813z"/>
</g>
<circle style="fill:#0090FF;" cx="194.289" cy="90.872" r="23.396"/>
<circle style="fill:#73D658;" cx="341.446" cy="308.556" r="25.43"/>
<circle style="fill:#F0582F;" cx="72.901" cy="301.436" r="23.057"/>
<g>
</g>
<g>
</g>
<g>
</g>
<g>
</g>
<g>
</g>
<g>
</g>
<g>
</g>
<g>
</g>
<g>
</g>
<g>
</g>
<g>
</g>
<g>
</g>
<g>
</g>
<g>
</g>
<g>
</g>
</svg>
