<?xml version="1.0" encoding="iso-8859-1"?>
<!-- Generator: Adobe Illustrator 19.0.0, SVG Export Plug-In . SVG Version: 6.00 Build 0)  -->
<svg version="1.1" id="Layer_1" xmlns="http://www.w3.org/2000/svg" xmlns:xlink="http://www.w3.org/1999/xlink" x="0px" y="0px"
	 viewBox="0 0 512 512" style="enable-background:new 0 0 512 512;" xml:space="preserve">
<circle style="fill:#FAA85F;" cx="376" cy="400" r="112"/>
<path style="fill:#FFFFFF;" d="M440,411.632v-23.264h-11.328c-0.016,0-0.032-0.016-0.048-0.016h-7.6
	c-1.088-4.272-2.784-8.272-4.976-11.968l3.376-3.376l2.016-2.016c0,0,0,0,0-0.016l8.032-8.032l-16.448-16.448l-8.016,8.016
	c0,0-0.016,0.016-0.032,0.016l-5.392,5.392c-3.712-2.192-7.712-3.856-11.968-4.96v-7.616V336h-23.264v11.376v7.616
	c-4.272,1.088-8.272,2.768-11.968,4.96l-5.344-5.392c-0.016-0.016-0.032-0.016-0.032-0.032l-8.016-8.016l-16.448,16.448l8.016,8.016
	c0,0,0,0.016,0.016,0.016l5.376,5.376c-2.192,3.68-3.84,7.696-4.96,11.968h-7.632c-0.016,0-0.032,0.016-0.048,0.016H312v11.584
	c0,0.016,0,0.016,0,0.032s0,0.016,0,0.032v11.616h18.96c1.104,4.256,2.784,8.272,4.96,11.984l-2.848,2.848l-10.56,10.56
	l16.448,16.448l13.424-13.424c3.696,2.176,7.712,3.856,11.984,4.96v7.632V464h23.264v-11.36v-7.632
	c4.256-1.088,8.272-2.768,11.984-4.944l13.424,13.424l8.192-8.192c0.016-0.016,0.032-0.016,0.048-0.032s0.016-0.032,0.032-0.048
	l8.192-8.192l-8-8c-0.016-0.016-0.016-0.016-0.016-0.032l-5.392-5.392c2.176-3.696,3.856-7.712,4.944-11.984H440V411.632z
	 M352.736,400c0.016-12.848,10.416-23.264,23.264-23.264c12.864,0,23.28,10.416,23.28,23.264c0,12.848-10.416,23.28-23.28,23.28
	C363.152,423.28,352.752,412.848,352.736,400z"/>
<path style="fill:#00384E;" d="M256.352,480H56V32h192v128h128v96c11.008,0,21.696,1.36,32,3.712V137.376L270.624,0H24v512h261.696
	C274.384,502.864,264.464,492.096,256.352,480z M280,54.624L353.376,128H280V54.624z"/>
<path style="fill:#72C6EF;" d="M232,400c0-68.384,47.968-125.68,112-140.288V160h-96V64H88v384h152.4
	C235.056,432.96,232,416.848,232,400z"/>
<g>
	<rect x="136" y="240" style="fill:#00384D;" width="160" height="32"/>
	<path style="fill:#00384D;" d="M268.976,304H136v32h111.2C253.008,324.336,260.352,313.6,268.976,304z"/>
	<path style="fill:#00384D;" d="M136,368v32h96c0-11.008,1.36-21.696,3.712-32H136z"/>
</g>
<g>
</g>
<g>
</g>
<g>
</g>
<g>
</g>
<g>
</g>
<g>
</g>
<g>
</g>
<g>
</g>
<g>
</g>
<g>
</g>
<g>
</g>
<g>
</g>
<g>
</g>
<g>
</g>
<g>
</g>
</svg>
