<?xml version="1.0" encoding="iso-8859-1"?>
<!-- Generator: Adobe Illustrator 19.0.0, SVG Export Plug-In . SVG Version: 6.00 Build 0)  -->
<svg version="1.1" id="Capa_1" xmlns="http://www.w3.org/2000/svg" xmlns:xlink="http://www.w3.org/1999/xlink" x="0px" y="0px"
	 viewBox="0 0 330.947 330.947" style="enable-background:new 0 0 330.947 330.947;" xml:space="preserve">
<g transform="translate(1 1)">
	<polygon style="fill:#63D3FD;" points="181.023,158.957 197.573,313.419 230.672,263.77 296.87,263.77 	"/>
	<polygon style="fill:#3DB9F9;" points="273.64,263.77 296.87,263.77 181.024,158.957 183.517,182.225 	"/>
	<g>
		<polygon style="fill:#FFE100;" points="181.023,158.957 219.638,193.893 219.638,120.341 4.495,120.341 4.495,263.77 
			192.255,263.77 		"/>
		<polygon style="fill:#FFE100;" points="142.407,15.528 142.407,197.572 185.16,197.572 181.023,158.957 223.699,197.572 
			324.452,197.572 324.452,15.528 		"/>
	</g>
	<polygon style="fill:#FFA800;" points="307.902,197.572 324.452,197.572 324.452,15.528 307.902,15.528 	"/>
	<polygon style="fill:#FFFFFF;" points="4.495,263.77 21.044,263.77 21.044,120.341 4.495,120.341 	"/>
	<path d="M197.573,318.914c-0.435,0-0.875-0.052-1.31-0.159c-2.247-0.551-3.908-2.451-4.154-4.752l-16.55-154.462
		c-0.243-2.267,0.939-4.448,2.97-5.482c2.032-1.035,4.489-0.708,6.181,0.822l115.846,104.814c1.685,1.524,2.257,3.929,1.441,6.05
		s-2.855,3.52-5.128,3.52h-63.258l-31.467,47.202C201.111,318.018,199.381,318.914,197.573,318.914z M188.022,172.7l13.398,125.043
		l24.68-37.02c1.019-1.529,2.735-2.447,4.572-2.447h51.934L188.022,172.7z"/>
	<path d="M192.254,269.265H4.495c-3.035,0-5.495-2.46-5.495-5.495V120.341c0-3.035,2.46-5.495,5.495-5.495h215.143
		c3.035,0,5.495,2.46,5.495,5.495v73.552c0,2.172-1.28,4.141-3.266,5.023c-1.987,0.88-4.305,0.509-5.915-0.948l-27.93-25.268
		l9.696,90.486c0.167,1.55-0.334,3.098-1.376,4.258C195.299,268.603,193.814,269.265,192.254,269.265z M9.99,258.275h176.149
		l-10.579-98.733c-0.243-2.267,0.938-4.448,2.97-5.482c2.03-1.035,4.49-0.708,6.18,0.822l29.434,26.629v-55.675H9.99V258.275z"/>
	<path d="M324.452,203.067H223.698c-1.362,0-2.677-0.506-3.687-1.42l-31.989-28.945l2.561,23.9c0.056,0.315,0.085,0.639,0.085,0.971
		c0,3.035-2.46,5.495-5.495,5.495c-0.004,0-0.009,0-0.013,0h-42.753c-3.035,0-5.495-2.46-5.495-5.495V15.528
		c0-3.035,2.46-5.495,5.495-5.495h182.044c3.035,0,5.495,2.46,5.495,5.495v182.044C329.947,200.607,327.487,203.067,324.452,203.067
		z M225.815,192.077h93.142V21.023H147.902v171.055h31.143l-3.486-32.535c-0.243-2.266,0.939-4.448,2.97-5.482
		c2.032-1.035,4.489-0.708,6.181,0.822L225.815,192.077z"/>
</g>
<g>
</g>
<g>
</g>
<g>
</g>
<g>
</g>
<g>
</g>
<g>
</g>
<g>
</g>
<g>
</g>
<g>
</g>
<g>
</g>
<g>
</g>
<g>
</g>
<g>
</g>
<g>
</g>
<g>
</g>
</svg>
