<svg width="309.267" height="309.267" xmlns="http://www.w3.org/2000/svg">
 <g>
  <title>background</title>
  <rect x="-1" y="-1" width="6187.34" height="6187.34" id="canvas_background" fill="none"/>
 </g>

 <g>
  <title>Layer 1</title>
  <g id="svg_1">
   <path d="m271.52301,121.614258l0,-53.587364c0,-9.832458 -7.987,-17.811775 -17.82901,-17.811775l-124.804016,0c0,0 -16.902008,-26.718117 -26.743988,-26.718117l-44.572998,0c-9.841976,0 -17.829014,7.97102 -17.829014,17.811771l0,80.3055l231.779026,0l0,-0.000015l0,0z" fill="#D0994B" id="svg_2"/>
   <path d="m39.74398,76.93232l231.77903,0l0,71.247093l-231.77903,0l0,-71.247093z" fill="#E4E7E7" id="svg_3"/>
   <path d="m244.779037,174.897537c29.542526,0 53.487961,23.930557 53.487961,53.436218c0,29.496475 -23.944489,53.436234 -53.487961,53.436234c-29.525009,0 -53.487961,-23.938843 -53.487961,-53.436234c0.000916,-29.50473 23.962952,-53.436218 53.487961,-53.436218z" fill="#3DB39E" id="svg_4"/>
   <path d="m178.65976,228.334686c0,-36.478699 29.614487,-66.055313 66.119263,-66.055313c17.641754,0 33.626007,6.946289 45.490784,18.2034l7.996246,-67.925987c0,-9.840752 -7.98703,-17.811768 -17.828979,-17.811768l-249.608049,0c-9.841976,0 -17.829014,7.970093 -17.829014,17.811768l17.829014,151.401436c0,9.832458 7.98704,17.811768 17.829016,17.811768l157.369244,0c-16.55426,-12.013641 -27.367523,-31.447266 -27.367523,-53.435303z" fill="#F4B459" id="svg_6"/>
   <path d="m247.831345,189.365601c-0.310303,-0.295212 -0.728348,-0.459091 -1.162903,-0.45578l0,0c-0.436386,0.000137 -0.854767,0.16864 -1.162888,0.468475l-32.764435,31.881668c-0.633179,0.630112 -0.619949,1.639053 0.029541,2.253326c0.303528,0.286957 0.709579,0.449051 1.133331,0.452347l18.067337,0l0,39.836151c0,0.880005 0.735413,1.593475 1.642548,1.593475l26.279922,0c0.907104,0 1.642487,-0.71347 1.642487,-1.593475l0,-39.836151l17.998383,0c0.907104,0.001648 1.643768,-0.710617 1.645447,-1.590668c0.000793,-0.424255 -0.172913,-0.831329 -0.482544,-1.130997l-32.866226,-31.878372z" fill="#ffffff" id="svg_22"/>
  </g>
  <g id="svg_7"/>
  <g id="svg_8"/>
  <g id="svg_9"/>
  <g id="svg_10"/>
  <g id="svg_11"/>
  <g id="svg_12"/>
  <g id="svg_13"/>
  <g id="svg_14"/>
  <g id="svg_15"/>
  <g id="svg_16"/>
  <g id="svg_17"/>
  <g id="svg_18"/>
  <g id="svg_19"/>
  <g id="svg_20"/>
  <g id="svg_21"/>
 </g>
</svg>